<svg xmlns="http://www.w3.org/2000/svg" viewBox="0 0 256 256" shape-rendering="crispEdges">
<!-- Body outline -->
<rect x="61" y="80" width="134" height="2" fill="#1A1228"/>
<rect x="55" y="82" width="6" height="2" fill="#1A1228"/>
<rect x="195" y="82" width="6" height="2" fill="#1A1228"/>
<rect x="53" y="84" width="2" height="2" fill="#1A1228"/>
<rect x="201" y="84" width="2" height="2" fill="#1A1228"/>
<rect x="51" y="86" width="2" height="4" fill="#1A1228"/>
<rect x="203" y="86" width="2" height="4" fill="#1A1228"/>
<rect x="49" y="90" width="2" height="4" fill="#1A1228"/>
<rect x="205" y="90" width="2" height="4" fill="#1A1228"/>
<rect x="47" y="94" width="2" height="8" fill="#1A1228"/>
<rect x="207" y="94" width="2" height="8" fill="#1A1228"/>
<rect x="45" y="102" width="2" height="80" fill="#1A1228"/>
<rect x="209" y="102" width="2" height="80" fill="#1A1228"/>
<rect x="47" y="182" width="2" height="8" fill="#1A1228"/>
<rect x="207" y="182" width="2" height="8" fill="#1A1228"/>
<rect x="49" y="190" width="2" height="4" fill="#1A1228"/>
<rect x="205" y="190" width="2" height="4" fill="#1A1228"/>
<rect x="51" y="194" width="2" height="4" fill="#1A1228"/>
<rect x="203" y="194" width="2" height="4" fill="#1A1228"/>
<rect x="53" y="198" width="2" height="2" fill="#1A1228"/>
<rect x="201" y="198" width="2" height="2" fill="#1A1228"/>
<rect x="55" y="200" width="6" height="2" fill="#1A1228"/>
<rect x="195" y="200" width="6" height="2" fill="#1A1228"/>
<rect x="61" y="202" width="134" height="2" fill="#1A1228"/>
<!-- Body fill -->
<rect x="61" y="82" width="134" height="120" fill="#FF9BB3"/>
<rect x="55" y="84" width="146" height="114" fill="#FF9BB3"/>
<rect x="53" y="86" width="150" height="108" fill="#FF9BB3"/>
<rect x="51" y="90" width="154" height="104" fill="#FF9BB3"/>
<rect x="49" y="94" width="158" height="96" fill="#FF9BB3"/>
<rect x="47" y="102" width="162" height="80" fill="#FF9BB3"/>
<!-- Belly -->
<rect x="88" y="140" width="80" height="50" fill="#FFC8D8"/>
<rect x="94" y="136" width="68" height="4" fill="#FFC8D8"/>
<!-- Ears -->
<rect x="70" y="62" width="26" height="18" fill="#FF9BB3"/>
<rect x="68" y="60" width="30" height="2" fill="#1A1228"/>
<rect x="66" y="62" width="2" height="18" fill="#1A1228"/>
<rect x="98" y="62" width="2" height="18" fill="#1A1228"/>
<rect x="160" y="62" width="26" height="18" fill="#FF9BB3"/>
<rect x="158" y="60" width="30" height="2" fill="#1A1228"/>
<rect x="156" y="62" width="2" height="18" fill="#1A1228"/>
<rect x="188" y="62" width="2" height="18" fill="#1A1228"/>
<rect x="74" y="66" width="18" height="10" fill="#C46A85"/>
<rect x="164" y="66" width="18" height="10" fill="#C46A85"/>
<!-- Eyes (>< bliss, X-shaped closed) -->
<!-- Left X eye -->
<rect x="90" y="112" width="4" height="4" fill="#1A1228"/>
<rect x="94" y="116" width="4" height="4" fill="#1A1228"/>
<rect x="98" y="120" width="4" height="4" fill="#1A1228"/>
<rect x="102" y="124" width="4" height="4" fill="#1A1228"/>
<rect x="106" y="128" width="4" height="4" fill="#1A1228"/>
<rect x="106" y="112" width="4" height="4" fill="#1A1228"/>
<rect x="102" y="116" width="4" height="4" fill="#1A1228"/>
<rect x="94" y="124" width="4" height="4" fill="#1A1228"/>
<rect x="90" y="128" width="4" height="4" fill="#1A1228"/>
<!-- Right X eye -->
<rect x="146" y="112" width="4" height="4" fill="#1A1228"/>
<rect x="150" y="116" width="4" height="4" fill="#1A1228"/>
<rect x="154" y="120" width="4" height="4" fill="#1A1228"/>
<rect x="158" y="124" width="4" height="4" fill="#1A1228"/>
<rect x="162" y="128" width="4" height="4" fill="#1A1228"/>
<rect x="162" y="112" width="4" height="4" fill="#1A1228"/>
<rect x="158" y="116" width="4" height="4" fill="#1A1228"/>
<rect x="150" y="124" width="4" height="4" fill="#1A1228"/>
<rect x="146" y="128" width="4" height="4" fill="#1A1228"/>
<!-- Cheeks -->
<rect x="66" y="138" width="24" height="24" fill="#FFE2EB"/>
<rect x="166" y="138" width="24" height="24" fill="#FFE2EB"/>
<!-- Nose -->
<rect x="114" y="138" width="28" height="18" fill="#E8485A"/>
<rect x="112" y="140" width="32" height="14" fill="#E8485A"/>
<rect x="120" y="146" width="6" height="6" fill="#1A1228"/>
<rect x="130" y="146" width="6" height="6" fill="#1A1228"/>
<!-- Big open mouth (eating) -->
<rect x="104" y="166" width="48" height="20" fill="#C46A85"/>
<rect x="102" y="164" width="52" height="2" fill="#1A1228"/>
<rect x="102" y="186" width="52" height="2" fill="#1A1228"/>
<rect x="100" y="166" width="2" height="20" fill="#1A1228"/>
<rect x="154" y="166" width="2" height="20" fill="#1A1228"/>
<!-- Food crumbs in mouth -->
<rect x="110" y="170" width="8" height="6" fill="#F6C453"/>
<rect x="130" y="172" width="10" height="6" fill="#8A5A2B"/>
<!-- Left hand with cake -->
<rect x="16" y="120" width="30" height="40" fill="#F6C453"/>
<rect x="14" y="118" width="34" height="2" fill="#1A1228"/>
<rect x="14" y="160" width="34" height="2" fill="#1A1228"/>
<rect x="12" y="120" width="2" height="40" fill="#1A1228"/>
<rect x="48" y="120" width="2" height="40" fill="#1A1228"/>
<!-- Cake frosting -->
<rect x="16" y="118" width="30" height="8" fill="#FFFFFF"/>
<rect x="20" y="112" width="6" height="6" fill="#E8485A"/>
<!-- Cake layers -->
<rect x="16" y="138" width="30" height="2" fill="#8A5A2B"/>
<!-- Left arm -->
<rect x="44" y="130" width="10" height="12" fill="#FF9BB3"/>
<!-- Right hand with meat -->
<rect x="210" y="124" width="30" height="30" fill="#8A5A2B"/>
<rect x="208" y="122" width="34" height="2" fill="#1A1228"/>
<rect x="208" y="154" width="34" height="2" fill="#1A1228"/>
<rect x="206" y="124" width="2" height="30" fill="#1A1228"/>
<rect x="242" y="124" width="2" height="30" fill="#1A1228"/>
<!-- Bone -->
<rect x="236" y="118" width="12" height="6" fill="#FFF8E6"/>
<rect x="234" y="116" width="4" height="10" fill="#FFF8E6"/>
<rect x="246" y="116" width="4" height="10" fill="#FFF8E6"/>
<!-- Right arm -->
<rect x="202" y="130" width="10" height="12" fill="#FF9BB3"/>
<!-- Feet -->
<rect x="90" y="204" width="26" height="14" fill="#FF9BB3"/>
<rect x="88" y="204" width="30" height="2" fill="#1A1228"/>
<rect x="88" y="218" width="30" height="2" fill="#1A1228"/>
<rect x="86" y="206" width="2" height="12" fill="#1A1228"/>
<rect x="118" y="206" width="2" height="12" fill="#1A1228"/>
<rect x="140" y="204" width="26" height="14" fill="#FF9BB3"/>
<rect x="138" y="204" width="30" height="2" fill="#1A1228"/>
<rect x="138" y="218" width="30" height="2" fill="#1A1228"/>
<rect x="136" y="206" width="2" height="12" fill="#1A1228"/>
<rect x="168" y="206" width="2" height="12" fill="#1A1228"/>
</svg>
