<svg xmlns="http://www.w3.org/2000/svg" viewBox="0 0 256 256" shape-rendering="crispEdges">
<!-- Devil: Horns (RED), pointed tail, mischievous face, flames -->
<!-- Horns -->
<rect x="92" y="8" width="8" height="4" fill="#E8485A"/>
<rect x="94" y="4" width="6" height="4" fill="#E8485A"/>
<rect x="96" y="0" width="4" height="4" fill="#E8485A"/>
<rect x="156" y="8" width="8" height="4" fill="#E8485A"/>
<rect x="156" y="4" width="6" height="4" fill="#E8485A"/>
<rect x="156" y="0" width="4" height="4" fill="#E8485A"/>
<!-- Head outline -->
<rect x="90" y="12" width="76" height="2" fill="#1A1228"/>
<rect x="88" y="14" width="2" height="56" fill="#1A1228"/>
<rect x="166" y="14" width="2" height="56" fill="#1A1228"/>
<rect x="90" y="68" width="76" height="2" fill="#1A1228"/>
<!-- Head fill -->
<rect x="90" y="14" width="76" height="54" fill="#FF9BB3"/>
<rect x="92" y="16" width="36" height="8" fill="#FFC8D8"/>
<!-- Left eye - いたずら目 (cat-like) -->
<rect x="98" y="36" width="28" height="16" fill="#FFF8E6"/>
<rect x="108" y="37" width="8" height="14" fill="#1A1228"/>
<rect x="100" y="38" width="4" height="4" fill="#E8485A"/>
<!-- Right eye - いたずら目 (cat-like) -->
<rect x="132" y="36" width="28" height="16" fill="#FFF8E6"/>
<rect x="142" y="37" width="8" height="14" fill="#1A1228"/>
<rect x="152" y="38" width="4" height="4" fill="#E8485A"/>
<!-- Mischievous eyebrows -->
<rect x="100" y="26" width="24" height="2" fill="#1A1228"/>
<rect x="136" y="28" width="24" height="2" fill="#1A1228"/>
<!-- Cheeks -->
<rect x="92" y="52" width="10" height="6" fill="#FFE2EB"/>
<rect x="154" y="52" width="10" height="6" fill="#FFE2EB"/>
<!-- Nose -->
<rect x="124" y="48" width="8" height="6" fill="#E8485A"/>
<!-- Smirk -->
<rect x="120" y="60" width="20" height="2" fill="#1A1228"/>
<rect x="140" y="58" width="4" height="2" fill="#1A1228"/>
<!-- Body outline -->
<rect x="96" y="70" width="64" height="2" fill="#1A1228"/>
<rect x="94" y="72" width="2" height="68" fill="#1A1228"/>
<rect x="160" y="72" width="2" height="68" fill="#1A1228"/>
<rect x="96" y="138" width="64" height="2" fill="#1A1228"/>
<!-- Body fill -->
<rect x="96" y="72" width="64" height="66" fill="#FF9BB3"/>
<rect x="96" y="72" width="64" height="10" fill="#C46A85"/>
<!-- Arms -->
<rect x="76" y="76" width="18" height="2" fill="#1A1228"/>
<rect x="74" y="78" width="2" height="36" fill="#1A1228"/>
<rect x="92" y="78" width="2" height="36" fill="#1A1228"/>
<rect x="76" y="78" width="16" height="34" fill="#FF9BB3"/>
<rect x="162" y="76" width="18" height="2" fill="#1A1228"/>
<rect x="162" y="78" width="2" height="36" fill="#1A1228"/>
<rect x="180" y="78" width="2" height="36" fill="#1A1228"/>
<rect x="164" y="78" width="16" height="34" fill="#FF9BB3"/>
<!-- Legs -->
<rect x="100" y="140" width="22" height="50" fill="#C46A85"/>
<rect x="98" y="140" width="2" height="52" fill="#1A1228"/>
<rect x="122" y="140" width="2" height="52" fill="#1A1228"/>
<rect x="134" y="140" width="22" height="50" fill="#C46A85"/>
<rect x="132" y="140" width="2" height="52" fill="#1A1228"/>
<rect x="156" y="140" width="2" height="52" fill="#1A1228"/>
<!-- Feet -->
<rect x="94" y="192" width="32" height="8" fill="#1A1228"/>
<rect x="130" y="192" width="32" height="8" fill="#1A1228"/>
<!-- Pointed tail -->
<rect x="162" y="120" width="20" height="4" fill="#E8485A"/>
<rect x="182" y="116" width="16" height="4" fill="#E8485A"/>
<rect x="198" y="112" width="12" height="4" fill="#E8485A"/>
<rect x="210" y="108" width="8" height="4" fill="#E8485A"/>
<rect x="218" y="104" width="6" height="8" fill="#E8485A"/>
<rect x="224" y="100" width="4" height="6" fill="#E8485A"/>
<!-- Flames at bottom -->
<rect x="60" y="220" width="8" height="16" fill="#E8485A"/>
<rect x="68" y="226" width="6" height="14" fill="#F6C453"/>
<rect x="56" y="230" width="6" height="10" fill="#F6C453"/>
<rect x="184" y="218" width="8" height="18" fill="#E8485A"/>
<rect x="192" y="224" width="6" height="14" fill="#F6C453"/>
<rect x="178" y="228" width="6" height="10" fill="#F6C453"/>
</svg>
