<svg xmlns="http://www.w3.org/2000/svg" viewBox="0 0 256 256" shape-rendering="crispEdges">
<!-- Muscle: Wide inverted triangle (180px), biceps, sweat -->
<!-- Head outline -->
<rect x="100" y="10" width="56" height="2" fill="#1A1228"/>
<rect x="98" y="12" width="2" height="46" fill="#1A1228"/>
<rect x="156" y="12" width="2" height="46" fill="#1A1228"/>
<rect x="100" y="56" width="56" height="2" fill="#1A1228"/>
<!-- Head fill -->
<rect x="100" y="12" width="56" height="44" fill="#FF9BB3"/>
<rect x="102" y="14" width="30" height="6" fill="#FFC8D8"/>
<!-- Left eye - 熱血目 -->
<rect x="108" y="26" width="20" height="16" fill="#FFF8E6"/>
<rect x="110" y="27" width="16" height="14" fill="#1A1228"/>
<rect x="112" y="33" width="4" height="4" fill="#E8485A"/>
<!-- Left thick brow -->
<rect x="104" y="20" width="24" height="4" fill="#1A1228"/>
<rect x="104" y="18" width="4" height="2" fill="#1A1228"/>
<!-- Right eye - 熱血目 -->
<rect x="140" y="26" width="20" height="16" fill="#FFF8E6"/>
<rect x="142" y="27" width="16" height="14" fill="#1A1228"/>
<rect x="144" y="33" width="4" height="4" fill="#E8485A"/>
<!-- Right thick brow -->
<rect x="138" y="20" width="24" height="4" fill="#1A1228"/>
<rect x="158" y="18" width="4" height="2" fill="#1A1228"/>
<!-- Cheeks -->
<rect x="102" y="44" width="10" height="6" fill="#FFE2EB"/>
<rect x="148" y="44" width="10" height="6" fill="#FFE2EB"/>
<!-- Nose -->
<rect x="124" y="40" width="8" height="6" fill="#E8485A"/>
<!-- Determined mouth -->
<rect x="118" y="50" width="20" height="2" fill="#1A1228"/>
<!-- Thick neck -->
<rect x="110" y="58" width="36" height="12" fill="#FF9BB3"/>
<!-- Body outline - wide -->
<rect x="38" y="70" width="180" height="2" fill="#1A1228"/>
<rect x="36" y="72" width="2" height="78" fill="#1A1228"/>
<rect x="218" y="72" width="2" height="78" fill="#1A1228"/>
<rect x="80" y="148" width="96" height="2" fill="#1A1228"/>
<!-- Body fill -->
<rect x="38" y="72" width="180" height="76" fill="#FF9BB3"/>
<!-- Chest muscles -->
<rect x="60" y="76" width="56" height="28" fill="#FFC8D8"/>
<rect x="140" y="76" width="56" height="28" fill="#FFC8D8"/>
<rect x="116" y="76" width="24" height="36" fill="#C46A85"/>
<!-- Abs -->
<rect x="104" y="112" width="20" height="10" fill="#FFC8D8"/>
<rect x="132" y="112" width="20" height="10" fill="#FFC8D8"/>
<rect x="104" y="126" width="20" height="10" fill="#FFC8D8"/>
<rect x="132" y="126" width="20" height="10" fill="#FFC8D8"/>
<rect x="124" y="112" width="8" height="26" fill="#C46A85"/>
<!-- Legs -->
<rect x="88" y="150" width="30" height="60" fill="#C46A85"/>
<rect x="86" y="150" width="2" height="62" fill="#1A1228"/>
<rect x="118" y="150" width="2" height="62" fill="#1A1228"/>
<rect x="138" y="150" width="30" height="60" fill="#C46A85"/>
<rect x="136" y="150" width="2" height="62" fill="#1A1228"/>
<rect x="168" y="150" width="2" height="62" fill="#1A1228"/>
<!-- Feet -->
<rect x="82" y="212" width="40" height="10" fill="#1A1228"/>
<rect x="134" y="212" width="40" height="10" fill="#1A1228"/>
<!-- Sweat drops -->
<rect x="70" y="16" width="6" height="10" fill="#5A8ED1"/>
<rect x="72" y="26" width="2" height="4" fill="#5A8ED1"/>
<rect x="186" y="14" width="6" height="10" fill="#5A8ED1"/>
<rect x="188" y="24" width="2" height="4" fill="#5A8ED1"/>
<rect x="228" y="60" width="6" height="10" fill="#5A8ED1"/>
</svg>
