<svg xmlns="http://www.w3.org/2000/svg" viewBox="0 0 256 256" shape-rendering="crispEdges">
<!-- Robot: Metallic GRAY+BLUE, rivets, antenna, LED eyes -->
<!-- Antenna -->
<rect x="126" y="4" width="4" height="14" fill="#B8A99A"/>
<rect x="122" y="2" width="12" height="4" fill="#5A8ED1"/>
<rect x="124" y="0" width="8" height="2" fill="#F6C453"/>
<!-- Head outline -->
<rect x="88" y="18" width="80" height="2" fill="#1A1228"/>
<rect x="86" y="20" width="2" height="52" fill="#1A1228"/>
<rect x="168" y="20" width="2" height="52" fill="#1A1228"/>
<rect x="88" y="70" width="80" height="2" fill="#1A1228"/>
<!-- Head fill metallic -->
<rect x="88" y="20" width="80" height="50" fill="#B8A99A"/>
<rect x="88" y="40" width="80" height="2" fill="#8A5A2B"/>
<!-- Left LED eye - 四角目 -->
<rect x="96" y="40" width="24" height="24" fill="#5A8ED1"/>
<rect x="102" y="46" width="12" height="12" fill="#1A1228"/>
<!-- Left scanlines -->
<rect x="96" y="44" width="24" height="2" fill="#1A1228" opacity="0.3"/>
<rect x="96" y="50" width="24" height="2" fill="#1A1228" opacity="0.3"/>
<rect x="96" y="56" width="24" height="2" fill="#1A1228" opacity="0.3"/>
<!-- Right LED eye - 四角目 -->
<rect x="140" y="40" width="24" height="24" fill="#5A8ED1"/>
<rect x="146" y="46" width="12" height="12" fill="#1A1228"/>
<!-- Right scanlines -->
<rect x="140" y="44" width="24" height="2" fill="#1A1228" opacity="0.3"/>
<rect x="140" y="50" width="24" height="2" fill="#1A1228" opacity="0.3"/>
<rect x="140" y="56" width="24" height="2" fill="#1A1228" opacity="0.3"/>
<!-- Nose sensor -->
<rect x="124" y="60" width="8" height="6" fill="#E8485A"/>
<!-- Speaker grille mouth -->
<rect x="112" y="66" width="4" height="2" fill="#1A1228"/>
<rect x="120" y="66" width="4" height="2" fill="#1A1228"/>
<rect x="128" y="66" width="4" height="2" fill="#1A1228"/>
<rect x="136" y="66" width="4" height="2" fill="#1A1228"/>
<!-- Neck -->
<rect x="112" y="72" width="32" height="10" fill="#B8A99A"/>
<rect x="120" y="74" width="4" height="6" fill="#5A8ED1"/>
<rect x="132" y="74" width="4" height="6" fill="#5A8ED1"/>
<!-- Body outline -->
<rect x="78" y="82" width="100" height="2" fill="#1A1228"/>
<rect x="76" y="84" width="2" height="76" fill="#1A1228"/>
<rect x="178" y="84" width="2" height="76" fill="#1A1228"/>
<rect x="78" y="158" width="100" height="2" fill="#1A1228"/>
<!-- Body fill -->
<rect x="78" y="84" width="100" height="74" fill="#B8A99A"/>
<!-- Chest panel -->
<rect x="98" y="92" width="60" height="36" fill="#5A8ED1"/>
<rect x="104" y="98" width="48" height="24" fill="#0A0612"/>
<rect x="110" y="104" width="8" height="8" fill="#6CB979"/>
<rect x="122" y="104" width="8" height="8" fill="#F6C453"/>
<rect x="134" y="104" width="8" height="8" fill="#E8485A"/>
<!-- Rivets -->
<rect x="82" y="88" width="4" height="4" fill="#1A1228"/>
<rect x="170" y="88" width="4" height="4" fill="#1A1228"/>
<rect x="82" y="150" width="4" height="4" fill="#1A1228"/>
<rect x="170" y="150" width="4" height="4" fill="#1A1228"/>
<!-- Arms -->
<rect x="56" y="84" width="20" height="2" fill="#1A1228"/>
<rect x="54" y="86" width="2" height="44" fill="#1A1228"/>
<rect x="74" y="86" width="2" height="44" fill="#1A1228"/>
<rect x="56" y="86" width="18" height="42" fill="#B8A99A"/>
<rect x="62" y="106" width="6" height="4" fill="#1A1228"/>
<rect x="180" y="84" width="20" height="2" fill="#1A1228"/>
<rect x="180" y="86" width="2" height="44" fill="#1A1228"/>
<rect x="200" y="86" width="2" height="44" fill="#1A1228"/>
<rect x="182" y="86" width="18" height="42" fill="#B8A99A"/>
<rect x="188" y="106" width="6" height="4" fill="#1A1228"/>
<!-- Legs -->
<rect x="90" y="160" width="28" height="50" fill="#B8A99A"/>
<rect x="88" y="160" width="2" height="52" fill="#1A1228"/>
<rect x="118" y="160" width="2" height="52" fill="#1A1228"/>
<rect x="100" y="184" width="6" height="4" fill="#1A1228"/>
<rect x="138" y="160" width="28" height="50" fill="#B8A99A"/>
<rect x="136" y="160" width="2" height="52" fill="#1A1228"/>
<rect x="166" y="160" width="2" height="52" fill="#1A1228"/>
<rect x="148" y="184" width="6" height="4" fill="#1A1228"/>
<!-- Feet -->
<rect x="84" y="212" width="38" height="10" fill="#5A8ED1"/>
<rect x="134" y="212" width="38" height="10" fill="#5A8ED1"/>
</svg>
