<svg xmlns="http://www.w3.org/2000/svg" viewBox="0 0 256 256" shape-rendering="crispEdges">


<!-- Body outline -->
<rect x="106" y="60" width="44" height="2" fill="#1A1228"/>
<rect x="94" y="62" width="12" height="2" fill="#1A1228"/>
<rect x="150" y="62" width="12" height="2" fill="#1A1228"/>
<rect x="86" y="64" width="8" height="2" fill="#1A1228"/>
<rect x="162" y="64" width="8" height="2" fill="#1A1228"/>
<rect x="80" y="66" width="6" height="2" fill="#1A1228"/>
<rect x="170" y="66" width="6" height="2" fill="#1A1228"/>
<rect x="76" y="68" width="4" height="2" fill="#1A1228"/>
<rect x="176" y="68" width="4" height="2" fill="#1A1228"/>
<rect x="72" y="70" width="4" height="2" fill="#1A1228"/>
<rect x="180" y="70" width="4" height="2" fill="#1A1228"/>
<rect x="70" y="72" width="2" height="2" fill="#1A1228"/>
<rect x="184" y="72" width="2" height="2" fill="#1A1228"/>
<rect x="68" y="74" width="2" height="4" fill="#1A1228"/>
<rect x="186" y="74" width="2" height="4" fill="#1A1228"/>
<rect x="66" y="78" width="2" height="4" fill="#1A1228"/>
<rect x="188" y="78" width="2" height="4" fill="#1A1228"/>
<rect x="64" y="82" width="2" height="6" fill="#1A1228"/>
<rect x="190" y="82" width="2" height="6" fill="#1A1228"/>
<rect x="62" y="88" width="2" height="10" fill="#1A1228"/>
<rect x="192" y="88" width="2" height="10" fill="#1A1228"/>
<rect x="60" y="98" width="2" height="50" fill="#1A1228"/>
<rect x="194" y="98" width="2" height="50" fill="#1A1228"/>
<rect x="62" y="148" width="2" height="10" fill="#1A1228"/>
<rect x="192" y="148" width="2" height="10" fill="#1A1228"/>
<rect x="64" y="158" width="2" height="4" fill="#1A1228"/>
<rect x="190" y="158" width="2" height="4" fill="#1A1228"/>
<rect x="66" y="162" width="2" height="2" fill="#1A1228"/>
<rect x="188" y="162" width="2" height="2" fill="#1A1228"/>
<rect x="68" y="164" width="2" height="2" fill="#1A1228"/>
<rect x="186" y="164" width="2" height="2" fill="#1A1228"/>
<rect x="70" y="166" width="4" height="2" fill="#1A1228"/>
<rect x="182" y="166" width="4" height="2" fill="#1A1228"/>
<rect x="74" y="168" width="108" height="2" fill="#1A1228"/>

<!-- Body fill -->
<rect x="70" y="72" width="116" height="94" fill="#FF9BB3"/>
<rect x="76" y="68" width="104" height="4" fill="#FF9BB3"/>
<rect x="80" y="66" width="96" height="2" fill="#FF9BB3"/>
<rect x="86" y="64" width="84" height="2" fill="#FF9BB3"/>
<rect x="94" y="62" width="68" height="2" fill="#FF9BB3"/>
<rect x="64" y="88" width="6" height="60" fill="#FF9BB3"/>
<rect x="62" y="98" width="2" height="50" fill="#FF9BB3"/>
<rect x="66" y="78" width="4" height="10" fill="#FF9BB3"/>
<rect x="68" y="74" width="2" height="4" fill="#FF9BB3"/>
<rect x="186" y="74" width="4" height="8" fill="#FF9BB3"/>
<rect x="190" y="82" width="4" height="66" fill="#FF9BB3"/>
<rect x="192" y="88" width="2" height="60" fill="#FF9BB3"/>
<rect x="64" y="148" width="6" height="14" fill="#FF9BB3"/>
<rect x="66" y="162" width="4" height="4" fill="#FF9BB3"/>
<rect x="68" y="164" width="2" height="2" fill="#FF9BB3"/>
<rect x="70" y="166" width="116" height="2" fill="#FF9BB3"/>
<rect x="188" y="148" width="4" height="14" fill="#FF9BB3"/>
<rect x="186" y="162" width="4" height="4" fill="#FF9BB3"/>

<!-- Ears -->
<rect x="78" y="48" width="16" height="2" fill="#1A1228"/>
<rect x="76" y="50" width="2" height="6" fill="#1A1228"/>
<rect x="94" y="50" width="2" height="4" fill="#1A1228"/>
<rect x="78" y="50" width="16" height="8" fill="#FF9BB3"/>
<rect x="80" y="52" width="12" height="4" fill="#C46A85"/>

<rect x="162" y="48" width="16" height="2" fill="#1A1228"/>
<rect x="160" y="50" width="2" height="4" fill="#1A1228"/>
<rect x="178" y="50" width="2" height="6" fill="#1A1228"/>
<rect x="162" y="50" width="16" height="8" fill="#FF9BB3"/>
<rect x="164" y="52" width="12" height="4" fill="#C46A85"/>

<!-- V-shaped angry eyebrows -->
<rect x="82" y="84" width="4" height="2" fill="#1A1228"/>
<rect x="86" y="86" width="4" height="2" fill="#1A1228"/>
<rect x="90" y="88" width="4" height="2" fill="#1A1228"/>
<rect x="94" y="90" width="4" height="2" fill="#1A1228"/>
<rect x="98" y="92" width="4" height="2" fill="#1A1228"/>
<rect x="102" y="94" width="4" height="2" fill="#1A1228"/>

<rect x="170" y="84" width="4" height="2" fill="#1A1228"/>
<rect x="166" y="86" width="4" height="2" fill="#1A1228"/>
<rect x="162" y="88" width="4" height="2" fill="#1A1228"/>
<rect x="158" y="90" width="4" height="2" fill="#1A1228"/>
<rect x="154" y="92" width="4" height="2" fill="#1A1228"/>
<rect x="150" y="94" width="4" height="2" fill="#1A1228"/>

<!-- Angry eyes (trapezoid - narrow top, wide bottom) -->
<!-- Left eye trapezoid -->
<rect x="88" y="96" width="18" height="4" fill="white"/>
<rect x="86" y="100" width="22" height="4" fill="white"/>
<rect x="84" y="104" width="26" height="4" fill="white"/>
<rect x="82" y="108" width="28" height="4" fill="white"/>
<rect x="82" y="112" width="28" height="8" fill="white"/>
<!-- Left pupil (small 10x10) -->
<rect x="91" y="104" width="10" height="10" fill="#1A1228"/>
<rect x="93" y="106" width="4" height="4" fill="white"/>

<!-- Right eye trapezoid -->
<rect x="150" y="96" width="18" height="4" fill="white"/>
<rect x="148" y="100" width="22" height="4" fill="white"/>
<rect x="146" y="104" width="26" height="4" fill="white"/>
<rect x="146" y="108" width="28" height="4" fill="white"/>
<rect x="146" y="112" width="28" height="8" fill="white"/>
<!-- Right pupil (small 10x10) -->
<rect x="157" y="104" width="10" height="10" fill="#1A1228"/>
<rect x="159" y="106" width="4" height="4" fill="white"/>

<!-- Cheeks (smaller, angrier) -->
<rect x="72" y="122" width="16" height="16" fill="#FFE2EB"/>
<rect x="168" y="122" width="16" height="16" fill="#FFE2EB"/>

<!-- Nose (flared) -->
<rect x="112" y="122" width="32" height="2" fill="#1A1228"/>
<rect x="108" y="124" width="4" height="16" fill="#1A1228"/>
<rect x="144" y="124" width="4" height="16" fill="#1A1228"/>
<rect x="112" y="140" width="32" height="2" fill="#1A1228"/>
<rect x="112" y="124" width="32" height="16" fill="#E8485A"/>
<rect x="116" y="128" width="8" height="8" fill="#1A1228"/>
<rect x="132" y="128" width="8" height="8" fill="#1A1228"/>

<!-- Angry mouth (gritting) -->
<rect x="108" y="148" width="40" height="2" fill="#1A1228"/>
<rect x="106" y="150" width="2" height="2" fill="#1A1228"/>
<rect x="148" y="150" width="2" height="2" fill="#1A1228"/>

<!-- Steam/snort from nose (white puffs) -->
<rect x="96" y="134" width="8" height="6" fill="white"/>
<rect x="92" y="136" width="4" height="6" fill="white"/>
<rect x="88" y="138" width="4" height="4" fill="white"/>
<rect x="96" y="132" width="8" height="2" fill="#B8A99A" opacity="0.5"/>

<rect x="152" y="134" width="8" height="6" fill="white"/>
<rect x="160" y="136" width="4" height="6" fill="white"/>
<rect x="164" y="138" width="4" height="4" fill="white"/>
<rect x="152" y="132" width="8" height="2" fill="#B8A99A" opacity="0.5"/>

<!-- Anger mark (top right) -->
<rect x="196" y="46" width="4" height="12" fill="#E8485A"/>
<rect x="204" y="46" width="4" height="12" fill="#E8485A"/>
<rect x="198" y="44" width="8" height="4" fill="#E8485A"/>
<rect x="198" y="56" width="8" height="4" fill="#E8485A"/>

<!-- Anger mark (top left) -->
<rect x="36" y="56" width="4" height="10" fill="#E8485A"/>
<rect x="44" y="56" width="4" height="10" fill="#E8485A"/>
<rect x="38" y="54" width="8" height="4" fill="#E8485A"/>
<rect x="38" y="64" width="8" height="4" fill="#E8485A"/>

<!-- Feet (fighting stance, wider apart) -->
<rect x="76" y="170" width="24" height="14" fill="#C46A85"/>
<rect x="76" y="168" width="24" height="2" fill="#1A1228"/>
<rect x="74" y="170" width="2" height="14" fill="#1A1228"/>
<rect x="100" y="170" width="2" height="14" fill="#1A1228"/>
<rect x="76" y="184" width="24" height="2" fill="#1A1228"/>

<rect x="156" y="170" width="24" height="14" fill="#C46A85"/>
<rect x="156" y="168" width="24" height="2" fill="#1A1228"/>
<rect x="154" y="170" width="2" height="14" fill="#1A1228"/>
<rect x="180" y="170" width="2" height="14" fill="#1A1228"/>
<rect x="156" y="184" width="24" height="2" fill="#1A1228"/>

<!-- Raised fists -->
<rect x="48" y="100" width="14" height="16" fill="#FFC8D8"/>
<rect x="48" y="98" width="14" height="2" fill="#1A1228"/>
<rect x="46" y="100" width="2" height="16" fill="#1A1228"/>
<rect x="62" y="100" width="2" height="16" fill="#1A1228"/>
<rect x="48" y="116" width="14" height="2" fill="#1A1228"/>

<rect x="194" y="100" width="14" height="16" fill="#FFC8D8"/>
<rect x="194" y="98" width="14" height="2" fill="#1A1228"/>
<rect x="192" y="100" width="2" height="16" fill="#1A1228"/>
<rect x="208" y="100" width="2" height="16" fill="#1A1228"/>
<rect x="194" y="116" width="14" height="2" fill="#1A1228"/>
</svg>
