<svg xmlns="http://www.w3.org/2000/svg" viewBox="0 0 256 256" shape-rendering="crispEdges">
<!-- Body fill -->
<rect x="56" y="80" width="144" height="100" fill="#FF9BB3"/>
<rect x="52" y="86" width="152" height="88" fill="#FF9BB3"/>
<rect x="50" y="92" width="156" height="76" fill="#FF9BB3"/>
<rect x="54" y="168" width="148" height="10" fill="#FF9BB3"/>
<rect x="62" y="178" width="132" height="6" fill="#FF9BB3"/>
<rect x="72" y="184" width="112" height="4" fill="#FF9BB3"/>
<!-- Highlight -->
<rect x="90" y="72" width="76" height="8" fill="#FFC8D8"/>
<!-- Body outline top -->
<rect x="100" y="66" width="56" height="2" fill="#1A1228"/>
<rect x="88" y="68" width="12" height="2" fill="#1A1228"/><rect x="156" y="68" width="12" height="2" fill="#1A1228"/>
<rect x="78" y="70" width="10" height="2" fill="#1A1228"/><rect x="168" y="70" width="10" height="2" fill="#1A1228"/>
<rect x="70" y="72" width="8" height="2" fill="#1A1228"/><rect x="178" y="72" width="8" height="2" fill="#1A1228"/>
<rect x="64" y="74" width="6" height="2" fill="#1A1228"/><rect x="186" y="74" width="6" height="2" fill="#1A1228"/>
<rect x="60" y="76" width="4" height="2" fill="#1A1228"/><rect x="192" y="76" width="4" height="2" fill="#1A1228"/>
<rect x="56" y="78" width="4" height="2" fill="#1A1228"/><rect x="196" y="78" width="4" height="2" fill="#1A1228"/>
<rect x="54" y="80" width="2" height="4" fill="#1A1228"/><rect x="200" y="80" width="2" height="4" fill="#1A1228"/>
<!-- Sides -->
<rect x="52" y="84" width="2" height="4" fill="#1A1228"/><rect x="202" y="84" width="2" height="4" fill="#1A1228"/>
<rect x="50" y="88" width="2" height="6" fill="#1A1228"/><rect x="204" y="88" width="2" height="6" fill="#1A1228"/>
<rect x="48" y="94" width="2" height="70" fill="#1A1228"/><rect x="206" y="94" width="2" height="70" fill="#1A1228"/>
<rect x="50" y="164" width="2" height="6" fill="#1A1228"/><rect x="204" y="164" width="2" height="6" fill="#1A1228"/>
<rect x="52" y="170" width="2" height="4" fill="#1A1228"/><rect x="202" y="170" width="2" height="4" fill="#1A1228"/>
<rect x="54" y="174" width="2" height="4" fill="#1A1228"/><rect x="200" y="174" width="2" height="4" fill="#1A1228"/>
<!-- Bottom -->
<rect x="56" y="178" width="6" height="2" fill="#1A1228"/><rect x="194" y="178" width="6" height="2" fill="#1A1228"/>
<rect x="62" y="180" width="8" height="2" fill="#1A1228"/><rect x="186" y="180" width="8" height="2" fill="#1A1228"/>
<rect x="70" y="182" width="116" height="2" fill="#1A1228"/>
<!-- Armor chest plate (GRAY) -->
<rect x="80" y="100" width="96" height="60" fill="#B8A99A"/>
<rect x="78" y="100" width="2" height="60" fill="#1A1228"/><rect x="176" y="100" width="2" height="60" fill="#1A1228"/>
<rect x="80" y="98" width="96" height="2" fill="#1A1228"/><rect x="80" y="160" width="96" height="2" fill="#1A1228"/>
<!-- Armor detail (BLUE cross) -->
<rect x="122" y="104" width="12" height="52" fill="#5A8ED1"/>
<rect x="86" y="124" width="84" height="12" fill="#5A8ED1"/>
<!-- Eyes (sharp warrior, white 30x18, pupil 10x16) -->
<rect x="79" y="111" width="30" height="18" fill="#FFF8E6"/>
<rect x="89" y="112" width="10" height="16" fill="#1A1228"/>
<rect x="91" y="112" width="4" height="4" fill="#FFFFFF"/>
<rect x="147" y="111" width="30" height="18" fill="#FFF8E6"/>
<rect x="157" y="112" width="10" height="16" fill="#1A1228"/>
<rect x="159" y="112" width="4" height="4" fill="#FFFFFF"/>
<!-- Nose -->
<rect x="118" y="130" width="20" height="14" fill="#E8485A"/>
<!-- Mouth -->
<rect x="112" y="150" width="32" height="2" fill="#1A1228"/>
<!-- Helmet (GRAY) -->
<rect x="82" y="46" width="92" height="22" fill="#B8A99A"/>
<rect x="80" y="46" width="2" height="22" fill="#1A1228"/><rect x="174" y="46" width="2" height="22" fill="#1A1228"/>
<rect x="82" y="44" width="92" height="2" fill="#1A1228"/>
<rect x="120" y="36" width="16" height="8" fill="#B8A99A"/>
<rect x="118" y="36" width="2" height="8" fill="#1A1228"/><rect x="136" y="36" width="2" height="8" fill="#1A1228"/><rect x="120" y="34" width="16" height="2" fill="#1A1228"/>
<!-- Helmet visor line -->
<rect x="82" y="56" width="92" height="2" fill="#1A1228"/>
<!-- Shield (left side) -->
<rect x="4" y="100" width="40" height="60" fill="#5A8ED1"/>
<rect x="8" y="96" width="32" height="4" fill="#5A8ED1"/>
<rect x="8" y="160" width="32" height="4" fill="#5A8ED1"/>
<rect x="2" y="100" width="2" height="60" fill="#1A1228"/><rect x="44" y="100" width="2" height="60" fill="#1A1228"/>
<rect x="6" y="96" width="2" height="4" fill="#1A1228"/><rect x="40" y="96" width="2" height="4" fill="#1A1228"/>
<rect x="8" y="94" width="32" height="2" fill="#1A1228"/><rect x="8" y="164" width="32" height="2" fill="#1A1228"/>
<rect x="6" y="160" width="2" height="4" fill="#1A1228"/><rect x="40" y="160" width="2" height="4" fill="#1A1228"/>
<!-- Shield emblem (YELLOW cross) -->
<rect x="20" y="108" width="8" height="44" fill="#F6C453"/>
<rect x="10" y="124" width="28" height="12" fill="#F6C453"/>
<!-- Feet -->
<rect x="86" y="184" width="28" height="12" fill="#B8A99A"/>
<rect x="142" y="184" width="28" height="12" fill="#B8A99A"/>
<rect x="84" y="184" width="2" height="12" fill="#1A1228"/><rect x="114" y="184" width="2" height="12" fill="#1A1228"/>
<rect x="140" y="184" width="2" height="12" fill="#1A1228"/><rect x="170" y="184" width="2" height="12" fill="#1A1228"/>
<rect x="86" y="196" width="28" height="2" fill="#1A1228"/><rect x="142" y="196" width="28" height="2" fill="#1A1228"/>
</svg>
